[img]http://www.khaolaknews.com/wp-content/uploads/2011/03/f1.jpg[/img]

Formula One 2011 Season

Race 4: Turkey Grand Prix, Istanbul Park Curcuit.

Record Source: BBC One Red Button Stream
Original Format: MPEG TS Stream
Date: Sunday 8th May 2011
Time: 15:30 to 16:15

After several requests, I have now opted for the Matroska container format (mkv) for all sessions.

***PLEASE NOTE*** For those who are unfamiliar with the BBC F1 FOrum, This is the POST RACE Anaylsis of the Turkish Grand Prix. 
DO NOT WATCH THIS UNTIL YOU KNOW THE RESULT OF THE RACE!!

Turkey Grand Prix F1 Forum

Jake Humpfries ,Martin Brundle & Eddie Jordan present POST RACE coverage of the BBC Red Button F1 Forum for the 4th Race meeting
of the 2011 Formula One season, The Turkish Grand Prix, from the Istanbul Park Curcuit.

Filename:			 : F1 2011 Turkey BBC F1 Forum
File size                        : 654 MiB
Duration                         : 42mn 43s
Overall bit rate                 : 2 141 Kbps
Writing application              : HandBrake 0.9.5
Writing library                  : libmkv 0.6.4.1

Video
ID                               : 1
Format                           : AVC
Format/Info                      : Advanced Video Codec
Format profile                   : Main@L3.0
Format settings, CABAC           : Yes
Format settings, ReFrames        : 4 frames
Codec ID                         : V_MPEG4/ISO/AVC
Duration                         : 42mn 43s
Bit rate                         : 2 000 Kbps
Width                            : 544 pixels
Height                           : 576 pixels
Display aspect ratio             : 16:9
Frame rate mode                  : Variable
Frame rate                       : 25.000 fps
Color space                      : YUV
Chroma subsampling               : 4:2:0
Bit depth                        : 8 bits
Scan type                        : Progressive
Bits/(Pixel*Frame)               : 0.255
Stream size                      : 602 MiB (92%)
Writing library                  : x264 core 112
Language                         : English
Color primaries                  : BT.601-6 525, BT.1358 525, BT.1700 NTSC, SMPTE 170M
Transfer characteristics         : BT.709-5, BT.1361
Matrix coefficients              : BT.601-6 525, BT.1358 525, BT.1700 NTSC, SMPTE 170M

Audio
ID                               : 2
Format                           : AC-3
Format/Info                      : Audio Coding 3
Mode extension                   : CM (complete main)
Codec ID                         : A_AC3
Duration                         : 42mn 43s
Bit rate mode                    : Constant
Bit rate                         : 128 Kbps
Channel(s)                       : 2 channels
Channel positions                : Front: L R
Sampling rate                    : 48.0 KHz
Bit depth                        : 16 bits
Compression mode                 : Lossy
Stream size                      : 39.1 MiB (6%)
Language                         : English

IF YOUR WONDERING WHERE THE RACE IS. I AM ABOUT TOUPLOAD IT IN ABOUT 20/30MINS AS ITS FINISHING ENCODING RIGHT NOW!! ILL POST THE LINK IN HERE SOON AS ITS AVAILABLE BUT I THOUGHT I MAY AS WELL GET THIS UPLOADED ASAP TOO




Enjoy

The BlackKnight



